<?xml version="1.0" encoding="iso-8859-1"?>
<!-- Uploaded to: SVG Repo, www.svgrepo.com, Generator: SVG Repo Mixer Tools -->
<svg fill="#000000" height="800px" width="800px" version="1.1" id="Layer_1" xmlns="http://www.w3.org/2000/svg" xmlns:xlink="http://www.w3.org/1999/xlink" 
	 viewBox="0 0 298.675 298.675" xml:space="preserve">
<g>
	<g>
		<g>
			<path d="M286.325,122.915C282.75,106.08,274.69,89.83,263.64,76.96c-15.275-19.63-35.035-35.555-57.2-46.15
				c-10.465-4.94-22.815-8.385-36.01-10.205C170.17,9.165,160.81,0,149.305,0c-11.44,0-20.8,9.165-21.125,20.605
				c-13.13,1.82-25.48,5.265-36.01,10.27c-22.1,10.53-41.86,26.52-57.135,46.085c-11.05,12.805-19.11,29.12-22.685,45.955
				c-5.525,22.88-2.535,47.84-0.13,67.86c1.625,22.685,9.1,57.005,14.495,82.095l1.17,5.525l0.065,0.13
				c2.015,7.995,6.825,14.235,13.65,17.615c3.38,1.69,7.15,2.535,10.985,2.535c3.575,0,7.215-0.715,10.66-2.21
				c26.91-11.505,63.57-23.725,85.67-23.725c27.04,0,71.24,17.225,85.735,22.945c7.8,3.12,15.925,2.925,22.815-0.52
				c6.5-3.25,11.18-9.1,13.195-16.51l0.065-0.26c0.78-3.835,1.69-7.93,2.6-12.22c5.135-24.31,11.57-54.535,13.13-75.335
				C288.86,170.755,291.85,145.795,286.325,122.915z M149.37,9.75c5.72,0,10.53,4.29,11.245,9.815
				c-3.835-0.26-7.735-0.455-11.7-0.455c-3.64,0-7.215,0.13-10.79,0.39C138.905,14.04,143.65,9.75,149.37,9.75z M120.705,44.265
				c3.315-4.42,10.4-10.985,14.43-14.625c4.55-0.455,9.1-0.65,13.715-0.65c4.94,0,9.88,0.26,14.69,0.715
				c4.095,3.64,11.05,10.14,14.365,14.56l0.065,0.065c13.845,17.81,28.665,39.065,33.735,61.815l0.065,0.26
				c5.395,18.785,1.885,55.64,0.39,68.445c-22.36-5.59-45.76-10.075-63.31-10.075c-17.095,0-40.17,4.42-62.4,10.01
				c-1.495-12.805-5.005-49.66,0.39-68.38l0.065-0.26c5.07-22.75,19.955-44.005,33.735-61.815L120.705,44.265z M21.97,190.06v-0.26
				c-2.275-19.37-5.2-43.42-0.065-64.675v-0.13C25.155,109.72,32.435,94.9,42.51,83.2l0.13-0.195
				C57.005,64.545,75.595,49.53,96.33,39.65c6.565-3.12,13.975-5.59,21.84-7.345c-2.015,2.08-3.9,4.16-5.265,6.045
				C98.41,56.94,82.875,79.3,77.35,103.87c-6.11,21.45-1.95,61.49-0.52,73.45c-22.685,6.045-43.355,12.87-54.535,16.705
				C22.165,192.66,22.035,191.36,21.97,190.06z M263.77,264.03c-0.91,4.29-1.755,8.32-2.535,12.09
				c-1.3,4.615-4.16,8.255-8.06,10.205c-4.355,2.21-9.62,2.275-14.885,0.195c-40.69-15.86-69.875-23.595-89.31-23.595
				c-29.64,0-75.985,18.785-89.44,24.505c-4.615,1.95-9.425,1.95-13.455-0.065c-4.16-2.08-7.15-6.045-8.45-11.18l-1.17-5.395
				c-4.095-18.98-9.88-45.76-12.805-66.95c21.06-7.215,88.595-29.315,125.385-29.315c37.505,0,105.17,22.1,126.23,29.315
				C272.61,222.43,267.8,245.05,263.77,264.03z M276.64,189.735v0.26c-0.065,1.3-0.195,2.6-0.325,3.965
				c-11.18-3.835-31.85-10.595-54.535-16.64c1.43-11.895,5.59-52-0.52-73.45c-5.525-24.57-21.06-46.865-35.555-65.52
				c-1.365-1.82-3.25-3.9-5.2-5.98c7.93,1.755,15.275,4.225,21.775,7.28c20.8,9.88,39.39,24.895,53.755,43.355l0.13,0.195
				c10.01,11.635,17.355,26.455,20.605,41.795v0.13C281.905,146.38,278.98,170.43,276.64,189.735z"/>
			<path d="M245.7,255.385c0.39,0.065,0.78,0.13,1.17,0.13c2.21,0,4.225-1.495,4.745-3.705l5.2-21.515
				c0.65-2.665-0.975-5.265-3.575-5.915c-2.665-0.65-5.265,0.975-5.915,3.575l-5.2,21.515
				C241.475,252.135,243.1,254.735,245.7,255.385z"/>
			<circle cx="243.23" cy="266.499" r="4.875"/>
		</g>
	</g>
</g>
</svg>