<?xml version="1.0" encoding="iso-8859-1"?>
<!-- Uploaded to: SVG Repo, www.svgrepo.com, Generator: SVG Repo Mixer Tools -->
<svg version="1.1" id="Layer_1" xmlns="http://www.w3.org/2000/svg" xmlns:xlink="http://www.w3.org/1999/xlink" 
	 viewBox="0 0 512 512" xml:space="preserve">
<path style="fill:#666666;" d="M356.106,86.183h-8.549h-48.254H256v362.24h131.248h85.253V202.578
	C472.501,138.288,420.383,86.183,356.106,86.183z"/>
<g>
	<polygon style="fill:#B3B3B3;" points="164.424,12.075 164.424,86.183 255.981,86.183 299.283,86.183 299.283,12.075 	"/>
	<rect x="382.285" y="448.423" style="fill:#B3B3B3;" width="85.253" height="51.502"/>
	<rect x="256" y="448.423" style="fill:#B3B3B3;" width="131.248" height="51.502"/>
	<rect x="124.752" y="448.423" style="fill:#B3B3B3;" width="131.248" height="51.502"/>
	<polygon style="fill:#B3B3B3;" points="124.752,448.423 124.752,499.925 39.499,499.925 39.499,448.423 42.216,448.423 	"/>
</g>
<path style="fill:#666666;" d="M124.752,448.423H42.216h-2.717V202.578c0-64.29,52.118-116.395,116.395-116.395h8.549H256v362.24
	H124.752z"/>
<rect x="299.278" y="12.075" style="fill:#B3B3B3;" width="48.254" height="74.107"/>
<g>
	<path style="fill:#2E1C10;" d="M387.248,220.027c6.666,0,12.076-5.41,12.076-12.075s-5.41-12.075-12.076-12.075
		c-6.666,0-12.075,5.41-12.075,12.075C375.173,214.617,380.583,220.027,387.248,220.027z"/>
	<path style="fill:#2E1C10;" d="M268.056,49.956c0-6.666-5.41-12.075-12.075-12.075s-12.075,5.41-12.075,12.075
		c0,6.678,5.41,12.075,12.075,12.075S268.056,56.634,268.056,49.956z"/>
	<path style="fill:#2E1C10;" d="M27.423,499.925c0,6.669,5.406,12.075,12.075,12.075h85.253h262.497h85.253
		c6.669,0,12.075-5.406,12.075-12.075V202.578c0-69.66-55.73-126.546-124.945-128.42V12.075C359.632,5.406,354.226,0,347.556,0
		H164.444c-6.669,0-12.075,5.406-12.075,12.075v62.082c-69.215,1.874-124.945,58.76-124.945,128.42V499.925z M51.574,460.498h61.102
		v27.351H51.574V460.498z M136.827,460.498h107.097v27.351H136.827V460.498z M375.173,487.849H268.075v-27.351h107.097V487.849z
		 M399.324,487.849v-27.351h61.102v27.351H399.324z M460.426,202.578v233.769h-61.102V245.881c0-6.669-5.406-12.075-12.076-12.075
		c-6.669,0-12.075,5.406-12.075,12.075v190.466H268.075V98.258h79.481h8.549C413.628,98.258,460.426,145.057,460.426,202.578z
		 M335.481,74.107h-24.103V24.151h24.103V74.107z M176.519,24.151h110.708v49.956H176.519V24.151z M155.894,98.258h8.549h79.481
		v338.089H136.827V207.952c0-6.669-5.406-12.075-12.075-12.075c-6.669,0-12.075,5.406-12.075,12.075v228.395H51.574V202.578
		C51.574,145.057,98.372,98.258,155.894,98.258z"/>
	<path style="fill:#2E1C10;" d="M347.556,243.925h-7.414h-43.291h-4.226c-6.669,0-12.075,5.406-12.075,12.075
		c0,6.669,5.406,12.075,12.075,12.075h4.226h43.291h7.414c6.669,0,12.075-5.406,12.075-12.075
		C359.632,249.331,354.225,243.925,347.556,243.925z"/>
</g>
</svg>