<?xml version="1.0" encoding="iso-8859-1"?>
<!-- Uploaded to: SVG Repo, www.svgrepo.com, Generator: SVG Repo Mixer Tools -->
<svg fill="#000000" height="800px" width="800px" version="1.1" id="Layer_1" xmlns="http://www.w3.org/2000/svg" xmlns:xlink="http://www.w3.org/1999/xlink" 
	 viewBox="0 0 512.004 512.004" xml:space="preserve">
<g transform="translate(1 1)">
	<g>
		<path d="M447.061,201.297c-11.626-87.168-26.246-143.96-44.184-150.945L328.004,0.437c-1.463-0.975-3.091-1.433-4.692-1.437
			c-3.523-0.011-6.916,2.169-8.139,5.84c-0.082,0.246-0.174,0.488-0.258,0.734c-12.678,6.341-35.116,10.497-59.913,10.497
			c-24.802,0-47.234-4.155-59.912-10.497c-0.084-0.245-0.176-0.487-0.258-0.734c-1.223-3.671-4.615-5.851-8.138-5.84
			c-1.601,0.005-3.229,0.462-4.692,1.437l-74.87,49.913c-17.94,6.978-32.561,63.772-44.188,150.946
			c-12.227,91.666-16.342,191.622-9.297,267.827c0.294,3.186,2.319,5.82,5.09,7.03v17.783c0,9.423,7.643,17.067,17.067,17.067h25.6
			c9.423,0,17.067-7.643,17.067-17.067v-18.786c1.622-1.221,2.81-3.01,3.237-5.119c0.102-0.502,0.303-1.471,0.596-2.837
			c0.491-2.292,1.058-4.849,1.692-7.604c1.094-4.751,2.256-9.485,3.46-14.112l8.519,25.557c1.162,3.484,4.422,5.835,8.095,5.835
			v17.067c0,9.423,7.643,17.067,17.067,17.067h187.733c9.423,0,17.067-7.643,17.067-17.067v-17.067c3.673,0,6.934-2.35,8.095-5.835
			l8.518-25.556c1.204,4.627,2.366,9.36,3.459,14.111c0.634,2.755,1.201,5.312,1.692,7.604c0.293,1.367,0.495,2.335,0.596,2.837
			c0.427,2.109,1.616,3.898,3.238,5.119v18.786c0,9.423,7.643,17.067,17.067,17.067h25.6c9.423,0,17.067-7.643,17.067-17.067
			v-17.784c2.771-1.21,4.794-3.845,5.089-7.03C463.403,392.919,459.287,292.963,447.061,201.297z M143.27,109.095
			c0.178-1.63,0.357-3.26,0.541-4.891c0.069-0.61,0.136-1.222,0.205-1.831c0-0.015-0.001-0.03-0.001-0.045l0.05-1.136
			c-0.172-6.908-2.108-16.396-7.3-26.225c-0.569-1.078-1.166-2.158-1.815-3.24c-0.478-0.796-0.979-1.575-1.491-2.346
			c-0.103-0.155-0.207-0.31-0.312-0.465c-1.037-1.53-2.143-3.008-3.32-4.431c-0.124-0.15-0.248-0.299-0.373-0.447
			c-0.597-0.707-1.206-1.405-1.838-2.084c0,0,0-0.001-0.001-0.001c-0.623-0.669-1.269-1.319-1.927-1.959
			c-0.148-0.144-0.297-0.288-0.447-0.431c-0.159-0.151-0.313-0.307-0.473-0.457l57.899-38.599
			c5.473,12.065,13.177,23.007,22.707,32.257c0.013,0.013,0.026,0.026,0.039,0.039c0.68,0.659,1.369,1.309,2.067,1.95
			c0.121,0.112,0.24,0.225,0.361,0.336c0.776,0.707,1.562,1.405,2.36,2.09l36.266,31.085v89.942H137.515
			C138.911,154.936,140.813,131.719,143.27,109.095z M263.538,88.262l36.265-31.084c0.803-0.689,1.593-1.391,2.373-2.102
			c0.103-0.094,0.203-0.19,0.306-0.285c0.715-0.656,1.42-1.322,2.116-1.997c0.007-0.007,0.015-0.014,0.022-0.022
			c2.601-2.524,5.071-5.169,7.391-7.935c6.186-7.371,11.345-15.557,15.327-24.333l57.9,38.6c-0.156,0.145-0.305,0.296-0.459,0.443
			c-0.16,0.153-0.319,0.307-0.478,0.461c-0.639,0.622-1.266,1.254-1.872,1.903c-0.016,0.017-0.033,0.034-0.049,0.051
			c-0.624,0.67-1.225,1.359-1.814,2.057c-0.135,0.161-0.27,0.322-0.404,0.484c-1.165,1.411-2.261,2.875-3.289,4.39
			c-0.115,0.169-0.229,0.339-0.342,0.509c-0.507,0.764-1.003,1.535-1.476,2.324c-2.493,4.154-4.376,8.291-5.767,12.245
			c-2.279,6.476-3.233,12.46-3.353,17.219c0.003,0.025,0.005,0.05,0.008,0.075l0.049,1.106c1.359,11.924,2.56,23.893,3.615,35.896
			c1.134,13.245,2.095,26.59,2.89,39.937H263.538V88.262z M255.003,33.137c17.857,0,34.734-1.977,48.611-5.532
			c-3.709,5.384-7.986,10.319-12.773,14.71c-0.705,0.645-1.42,1.282-2.147,1.905l-33.69,28.878L221.311,44.22
			c-0.726-0.622-1.439-1.258-2.144-1.902c-4.788-4.392-9.066-9.327-12.775-14.711C220.268,31.161,237.143,33.137,255.003,33.137z
			 M75.802,493.937v-17.066h25.6v17.066H75.802z M113.459,431.882c-2.174,7.62-4.225,15.753-6.096,23.881
			c-0.322,1.398-0.627,2.748-0.915,4.041H69.97c-5.957-73.779-1.767-168.854,9.89-256.251c5.383-40.361,12.027-75.988,18.884-101.49
			c3.375-12.553,6.728-22.361,9.856-28.893c0.69-1.441,1.354-2.689,1.978-3.735c0.518,0.405,1.032,0.812,1.524,1.238
			c0.082,0.071,0.159,0.146,0.24,0.217c0.499,0.439,0.983,0.891,1.456,1.352c0.163,0.159,0.324,0.32,0.485,0.482
			c0.429,0.433,0.846,0.875,1.254,1.326c0.11,0.122,0.224,0.24,0.333,0.364c0.494,0.561,0.971,1.137,1.433,1.725
			c0.125,0.159,0.245,0.323,0.367,0.484c0.349,0.457,0.688,0.922,1.018,1.395c0.133,0.191,0.268,0.382,0.398,0.576
			c0.406,0.602,0.801,1.212,1.178,1.837c0.016,0.027,0.034,0.052,0.05,0.079c1.675,2.791,3.011,5.724,4.056,8.713
			c0.703,2.012,1.276,4.048,1.718,6.087c0.559,2.58,0.814,4.6,0.891,5.797c-0.062,0.542-0.118,1.085-0.178,1.627
			c-0.01,0.087-0.019,0.174-0.029,0.261c-0.177,1.579-0.351,3.16-0.523,4.745c-0.138,1.263-0.279,2.526-0.413,3.788
			c-0.032,0.302-0.062,0.605-0.094,0.907c-5.841,55.303-8.382,109.711-8.332,161.889c-0.191,49.18,1.7,94.963,5.143,131.704
			C119.516,412.472,116.497,421.234,113.459,431.882z M348.869,493.937H161.136v-17.067h187.733V493.937z M366.409,438.534
			c-0.12,0.956-0.217,1.714-0.29,2.269l-6.334,19.001h-2.383h-204.8h-2.383l-6.334-19.001c-0.073-0.555-0.171-1.313-0.29-2.269
			c-0.319-2.552-0.676-5.569-1.06-9.034c-1.102-9.926-2.204-21.43-3.234-34.372c-3.052-38.356-4.783-78.905-4.821-120.912
			c0.102-25.651,0.777-52.241,2.1-78.945h118.421c0,0,0.001,0,0.001,0s0.001,0,0.001,0h118.421
			c1.321,26.805,1.993,53.444,2.094,79.109c-0.041,42.009-1.77,82.471-4.816,120.748c-1.03,12.942-2.133,24.446-3.234,34.372
			C367.085,432.965,366.728,435.982,366.409,438.534z M387.449,406.027c3.44-36.704,5.33-82.43,5.143-131.553
			c0.055-52.038-2.467-106.294-8.27-161.448c-0.057-0.541-0.11-1.083-0.168-1.625c-0.142-1.336-0.292-2.675-0.438-4.012
			c-0.129-1.19-0.26-2.378-0.393-3.565c-0.101-0.906-0.195-1.813-0.298-2.719c0.077-1.197,0.332-3.218,0.891-5.797
			c1.098-5.068,2.971-10.131,5.773-14.8c0.398-0.664,0.818-1.31,1.248-1.948c0.114-0.168,0.23-0.334,0.346-0.5
			c0.353-0.507,0.716-1.005,1.09-1.494c0.103-0.134,0.203-0.271,0.307-0.405c0.473-0.603,0.962-1.194,1.469-1.769
			c0.086-0.097,0.176-0.19,0.262-0.287c0.432-0.481,0.877-0.951,1.334-1.411c0.143-0.144,0.287-0.288,0.432-0.43
			c0.502-0.49,1.016-0.97,1.547-1.436c0.054-0.047,0.105-0.097,0.159-0.143c0.497-0.431,1.017-0.842,1.54-1.251
			c0.624,1.046,1.288,2.294,1.978,3.734c3.128,6.532,6.481,16.34,9.856,28.893c6.857,25.502,13.501,61.129,18.884,101.49
			c11.657,87.398,15.847,182.472,9.89,256.251h-36.479c-0.288-1.293-0.593-2.642-0.915-4.041
			c-1.871-8.128-3.922-16.261-6.096-23.881C393.507,421.234,390.488,412.472,387.449,406.027z M408.602,493.937v-17.066h25.6v17.066
			H408.602z"/>
	</g>
</g>
</svg>