<?xml version="1.0" encoding="UTF-8" standalone="no"?>
<!-- Uploaded to: SVG Repo, www.svgrepo.com, Generator: SVG Repo Mixer Tools -->

<svg
   version="1.1"
   id="_x34_"
   viewBox="0 0 424.28799 559"
   xml:space="preserve"
   sodipodi:docname="server-svgrepo-com.svg"
   width="424.28799"
   height="559"
   inkscape:export-filename="server-svgrepo-com.png"
   inkscape:export-xdpi="37.5"
   inkscape:export-ydpi="37.5"
   inkscape:version="1.3 (0e150ed6c4, 2023-07-21)"
   xmlns:inkscape="http://www.inkscape.org/namespaces/inkscape"
   xmlns:sodipodi="http://sodipodi.sourceforge.net/DTD/sodipodi-0.dtd"
   xmlns="http://www.w3.org/2000/svg"
   xmlns:svg="http://www.w3.org/2000/svg"><defs
   id="defs15" /><sodipodi:namedview
   id="namedview15"
   pagecolor="#ffffff"
   bordercolor="#000000"
   borderopacity="0.25"
   inkscape:showpageshadow="2"
   inkscape:pageopacity="0.0"
   inkscape:pagecheckerboard="0"
   inkscape:deskcolor="#d1d1d1"
   inkscape:zoom="1.1338568"
   inkscape:cx="98.336935"
   inkscape:cy="281.78162"
   inkscape:window-width="1920"
   inkscape:window-height="1017"
   inkscape:window-x="-8"
   inkscape:window-y="-8"
   inkscape:window-maximized="1"
   inkscape:current-layer="_x34_" />&#10;<g
   id="g15"
   inkscape:export-filename="server-svgrepo-com.png"
   inkscape:export-xdpi="37.5"
   inkscape:export-ydpi="37.5"
   transform="matrix(0.85458374,0,0,0.85458374,67.027864,59.972301)">&#10;	<path
   style="fill:#9f9e9f"
   d="m 333.337,457.194 c 0,1.963 -0.218,3.853 -0.582,5.67 -1.09,6.178 -4.143,11.702 -8.431,15.919 -0.218,0.217 -0.509,0.508 -0.8,0.726 -5.451,5.089 -12.72,8.287 -20.788,8.287 H 52.552 c -8.068,0 -15.337,-3.199 -20.788,-8.287 -4.725,-4.36 -8.069,-10.103 -9.231,-16.644 -0.363,-1.817 -0.582,-3.707 -0.582,-5.67 0,-5.523 1.527,-10.757 4.143,-15.264 1.308,-2.327 2.98,-4.434 4.87,-6.324 5.524,-5.524 13.156,-8.94 21.588,-8.94 h 250.185 c 16.863,0 30.6,13.738 30.6,30.527 z"
   id="path1" />&#10;	<path
   style="fill:#c4c4c4"
   d="m 344.822,482.417 v 26.675 c 0,1.599 -1.309,2.908 -2.908,2.908 H 13.374 c -1.599,0 -2.907,-1.309 -2.907,-2.908 v -26.675 c 0,-1.6 1.308,-2.909 2.907,-2.909 h 328.54 c 1.599,0.001 2.908,1.31 2.908,2.909 z"
   id="path2" />&#10;	<path
   style="fill:#c4c4c4"
   d="m 344.822,414.237 v 36.27 c 0,6.687 -5.452,12.212 -12.066,12.357 -0.146,0.073 -0.291,0.073 -0.436,0.073 H 22.969 c -0.146,0 -0.291,0 -0.436,-0.073 -6.614,-0.146 -12.066,-5.67 -12.066,-12.357 v -36.27 c 0,-6.832 5.669,-12.429 12.502,-12.429 H 332.32 c 6.832,0 12.502,5.597 12.502,12.429 z"
   id="path3" />&#10;	<rect
   x="24.677"
   y="412.319"
   style="fill:#9b9b9b"
   width="117.478"
   height="29.608"
   id="rect3" />&#10;	<path
   style="fill:#3b4045"
   d="M 355.288,11.558 V 415.11 c 0,6.033 -4.579,10.976 -10.466,11.484 -0.364,0.073 -0.727,0.073 -1.09,0.073 H 11.557 c -0.363,0 -0.727,0 -1.09,-0.073 C 4.579,426.086 0,421.143 0,415.11 V 11.558 C 0,5.233 5.16,0 11.557,0 h 332.175 c 6.396,0 11.556,5.233 11.556,11.558 z"
   id="path4" />&#10;	<g
   id="g6">&#10;		<g
   id="g5">&#10;			<rect
   x="10.501"
   y="50.571999"
   style="fill:#33363b"
   width="171.63699"
   height="24.355"
   id="rect4" />&#10;			<rect
   x="182.138"
   y="50.571999"
   style="fill:#2a5582"
   width="162.64999"
   height="24.355"
   id="rect5" />&#10;		</g>&#10;		<polygon
   style="opacity:0.1;fill:#fdfefe"
   points="182.138,87.105 344.788,87.105 344.788,70.868 182.138,70.868 10.501,70.868 10.501,87.105 "
   id="polygon5" />&#10;	</g>&#10;	<g
   id="g8">&#10;		<g
   id="g7">&#10;			<rect
   x="10.501"
   y="121.25"
   style="fill:#33363b"
   width="171.63699"
   height="24.355"
   id="rect6" />&#10;			<rect
   x="182.138"
   y="121.25"
   style="fill:#2a5582"
   width="162.64999"
   height="24.355"
   id="rect7" />&#10;		</g>&#10;		<polygon
   style="opacity:0.1;fill:#fdfefe"
   points="182.138,157.783 344.788,157.783 344.788,141.546 182.138,141.546 10.501,141.546 10.501,157.783 "
   id="polygon7" />&#10;	</g>&#10;	<g
   id="g10">&#10;		<g
   id="g9">&#10;			<rect
   x="10.501"
   y="191.92799"
   style="fill:#33363b"
   width="171.63699"
   height="24.355"
   id="rect8" />&#10;			<rect
   x="182.138"
   y="191.92799"
   style="fill:#2a5582"
   width="162.64999"
   height="24.355"
   id="rect9" />&#10;		</g>&#10;		<polygon
   style="opacity:0.1;fill:#fdfefe"
   points="182.138,228.461 344.788,228.461 344.788,212.224 182.138,212.224 10.501,212.224 10.501,228.461 "
   id="polygon9" />&#10;	</g>&#10;	<g
   style="opacity:0.8"
   id="g12">&#10;		<path
   style="fill:#dcdbdb"
   d="m 177.64,351.595 c -15.558,0 -30.94,-1.108 -47.024,-3.389 l -2.504,-0.356 -0.651,-2.444 c -6.456,-24.247 -6.456,-43.142 0,-67.391 l 0.651,-2.444 2.504,-0.356 c 16.084,-2.28 31.466,-3.389 47.024,-3.389 15.558,0 30.942,1.11 47.032,3.389 l 2.505,0.356 0.651,2.444 c 6.456,24.249 6.456,43.142 0,67.391 l -0.651,2.444 -2.504,0.356 c -16.091,2.281 -31.475,3.389 -47.033,3.389 z"
   id="path10" />&#10;		<path
   style="fill:#3b4045"
   d="m 224.136,344.422 c -31.52,4.47 -61.463,4.471 -92.982,0 -6.248,-23.461 -6.248,-41.964 0,-65.425 31.52,-4.469 61.462,-4.469 92.982,0 6.247,23.462 6.248,41.964 0,65.425 z"
   id="path11" />&#10;		<path
   style="fill:#dcdbdb"
   d="m 177.642,332.082 c -10.21,0 -18.516,-8.306 -18.516,-18.516 0,-6.635 3.583,-12.803 9.352,-16.096 1.525,-0.87 3.469,-0.34 4.341,1.186 0.871,1.526 0.34,3.469 -1.186,4.341 -3.79,2.163 -6.144,6.213 -6.144,10.57 0,6.701 5.452,12.153 12.153,12.153 6.704,0 12.158,-5.452 12.158,-12.153 0,-4.358 -2.356,-8.41 -6.149,-10.575 -1.526,-0.871 -2.057,-2.814 -1.185,-4.34 0.871,-1.526 2.815,-2.057 4.34,-1.185 5.772,3.295 9.357,9.464 9.357,16.1 0,10.208 -8.308,18.515 -18.521,18.515 z"
   id="path12" />&#10;	</g>&#10;	<path
   style="fill:#dcdbdb"
   d="m 177.645,315.18 c -1.619,0 -2.937,-1.317 -2.937,-2.937 v -17.967 c 0,-1.619 1.317,-2.937 2.937,-2.937 1.619,0 2.937,1.317 2.937,2.937 v 17.967 c -0.001,1.619 -1.318,2.937 -2.937,2.937 z"
   id="path13" />&#10;	<circle
   style="fill:#2a5582"
   cx="236.07401"
   cy="393.535"
   r="13.372"
   id="circle13" />&#10;	<circle
   style="fill:#2a5582"
   cx="276.83401"
   cy="393.535"
   r="13.372"
   id="circle14" />&#10;	<circle
   style="fill:#2a5582"
   cx="317.595"
   cy="393.535"
   r="13.371"
   id="circle15" />&#10;</g>&#10;</svg>
