<?xml version="1.0" encoding="iso-8859-1"?>
<!-- Uploaded to: SVG Repo, www.svgrepo.com, Generator: SVG Repo Mixer Tools -->
<svg version="1.1" id="Layer_1" xmlns="http://www.w3.org/2000/svg" xmlns:xlink="http://www.w3.org/1999/xlink" 
	 viewBox="0 0 511.992 511.992" xml:space="preserve">
<path style="fill:#4FC0E8;" d="M469.324,426.665H42.66v-287.99c0-58.912,47.756-106.668,106.668-106.668H362.64
	c58.92,0,106.684,47.756,106.684,106.668V426.665z"/>
<rect x="191.992" style="fill:#CBD0D8;" width="128" height="57.693"/>
<rect x="117.332" y="108.679" style="fill:#4FC0E8;" width="277.31" height="403.31"/>
<rect x="245.322" y="57.702" style="fill:#3BAED9;" width="21.328" height="454.29"/>
<g>
	<rect x="42.66" y="394.669" style="fill:#E5E8EC;" width="74.67" height="31.999"/>
	<rect x="394.642" y="394.669" style="fill:#E5E8EC;" width="74.69" height="31.999"/>
</g>
<g>
	<path style="fill:#424953;" d="M63.995,410.666c0,5.891-4.773,10.672-10.664,10.672c-5.89,0-10.671-4.781-10.671-10.672
		s4.781-10.672,10.671-10.672C59.222,399.994,63.995,404.775,63.995,410.666z"/>
	<path style="fill:#424953;" d="M469.324,410.666c0,5.891-4.781,10.672-10.688,10.672c-5.875,0-10.656-4.781-10.656-10.672
		s4.781-10.672,10.656-10.672C464.543,399.994,469.324,404.775,469.324,410.666z"/>
</g>
<g>
	<polygon style="fill:#E5E8EC;" points="319.986,0.009 350.923,32.007 310.267,108.676 255.988,57.702 	"/>
	<polygon style="fill:#E5E8EC;" points="191.991,0.009 161.046,32.007 201.717,108.676 255.988,57.702 	"/>
</g>
<g>
	<path style="fill:#424953;" d="M277.332,245.335c0,5.891-4.781,10.664-10.68,10.664c-5.891,0-10.664-4.773-10.664-10.664
		s4.773-10.664,10.664-10.664C272.551,234.672,277.332,239.445,277.332,245.335z"/>
	<path style="fill:#424953;" d="M277.332,309.341c0,5.875-4.781,10.656-10.68,10.656c-5.891,0-10.664-4.781-10.664-10.656
		c0-5.906,4.773-10.671,10.664-10.671C272.551,298.67,277.332,303.435,277.332,309.341z"/>
	<path style="fill:#424953;" d="M277.332,181.338c0,5.89-4.781,10.664-10.68,10.664c-5.891,0-10.664-4.773-10.664-10.664
		s4.773-10.664,10.664-10.664C272.551,170.674,277.332,175.447,277.332,181.338z"/>
	<path style="fill:#424953;" d="M277.332,373.338c0,5.875-4.781,10.656-10.68,10.656c-5.891,0-10.664-4.781-10.664-10.656
		c0-5.905,4.773-10.671,10.664-10.671C272.551,362.667,277.332,367.433,277.332,373.338z"/>
	<path style="fill:#424953;" d="M277.332,437.337c0,5.874-4.781,10.654-10.68,10.654c-5.891,0-10.664-4.78-10.664-10.654
		c0-5.906,4.773-10.672,10.664-10.672C272.551,426.665,277.332,431.431,277.332,437.337z"/>
</g>
<path style="opacity:0.1;enable-background:new    ;" d="M415.983,181.338c0-5.891-4.781-10.664-10.656-10.664
	c-5.906,0-10.688,4.773-10.688,10.664v245.327h21.344V181.338z"/>
<path style="opacity:0.1;enable-background:new    ;" d="M117.329,181.338c0-5.891-4.781-10.664-10.672-10.664
	c-5.89,0-10.664,4.773-10.664,10.664v245.327h21.335L117.329,181.338L117.329,181.338z"/>
</svg>