<?xml version="1.0" encoding="iso-8859-1"?>
<!-- Uploaded to: SVG Repo, www.svgrepo.com, Generator: SVG Repo Mixer Tools -->
<svg version="1.1" id="Layer_1" xmlns="http://www.w3.org/2000/svg" xmlns:xlink="http://www.w3.org/1999/xlink" 
	 viewBox="0 0 511.981 511.981" xml:space="preserve">
<path style="fill:#A0D468;" d="M479.982,106.653c0-58.904-47.764-106.652-106.669-106.652h-53.325
	c0,35.342-28.655,63.998-63.998,63.998s-63.998-28.656-63.998-63.998H138.65c-58.903,0-106.652,47.748-106.652,106.652v319.988
	h74.653v85.34h298.662v-85.34h74.669V106.653z"/>
<rect x="426.64" y="383.991" style="fill:#FFCE54;" width="53.34" height="42.655"/>
<g>
	<path style="fill:#8CC153;" d="M106.651,159.994c0-5.875-4.766-10.655-10.655-10.655c-5.891,0-10.672,4.781-10.672,10.655v266.647
		h21.327C106.652,426.641,106.652,159.994,106.651,159.994z"/>
	<path style="fill:#8CC153;" d="M426.64,154.651c0-5.875-4.766-10.656-10.655-10.656c-5.891,0-10.672,4.781-10.672,10.656v271.99
		h21.327V154.651z"/>
	<path style="fill:#8CC153;" d="M255.99,63.998c-35.343,0-63.998-28.656-63.998-63.998h-21.343c0,22.812,8.891,44.217,24.999,60.341
		c16.125,16.126,37.546,25,60.342,25c22.797,0,44.218-8.875,60.342-24.999c16.108-16.125,24.983-37.53,24.983-60.341h-21.327
		C319.988,35.343,291.333,63.998,255.99,63.998z"/>
</g>
<rect x="405.31" y="383.991" style="fill:#F6BB42;" width="21.327" height="42.655"/>
<rect x="32" y="383.991" style="fill:#FFCE54;" width="53.33" height="42.655"/>
<rect x="85.32" y="383.991" style="fill:#F6BB42;" width="21.327" height="42.655"/>
<g>
	<path style="fill:#8CC153;" d="M127.995,501.326c-5.891,0-10.672,4.78-10.672,10.655h21.327
		C138.65,506.106,133.886,501.326,127.995,501.326z"/>
	<path style="fill:#8CC153;" d="M191.992,501.326c-5.891,0-10.671,4.78-10.671,10.655h21.327
		C202.648,506.106,197.883,501.326,191.992,501.326z"/>
	<path style="fill:#8CC153;" d="M255.99,501.326c-5.891,0-10.672,4.78-10.672,10.655h21.328
		C266.646,506.106,261.881,501.326,255.99,501.326z"/>
	<path style="fill:#8CC153;" d="M319.988,501.326c-5.891,0-10.672,4.78-10.672,10.655h21.327
		C330.643,506.106,325.878,501.326,319.988,501.326z"/>
	<path style="fill:#8CC153;" d="M383.985,501.326c-5.891,0-10.672,4.78-10.672,10.655h21.328
		C394.641,506.106,389.876,501.326,383.985,501.326z"/>
</g>
<g>
	<rect x="106.65" y="170.671" style="fill:#EC5564;" width="298.66" height="21.328"/>
	<rect x="106.67" y="277.331" style="fill:#EC5564;" width="298.65" height="21.327"/>
</g>
</svg>