<?xml version="1.0" encoding="utf-8"?>
<!-- Uploaded to: SVG Repo, www.svgrepo.com, Generator: SVG Repo Mixer Tools -->
<svg fill="#000000" width="800px" height="800px" viewBox="0 0 32 32" version="1.1" xmlns="http://www.w3.org/2000/svg">
<title>umbrella</title>
<path d="M16 1.25c-7.104 0-14.75 5.242-14.75 16.75 0 0.414 0.336 0.75 0.75 0.75s0.75-0.336 0.75-0.75v0c0-1.84 2.030-2.679 3.916-2.679s3.917 0.839 3.917 2.679c0 0.414 0.336 0.75 0.75 0.75s0.75-0.336 0.75-0.75v0c0-1.84 2.030-2.679 3.917-2.679s3.916 0.839 3.916 2.679c0 0.414 0.336 0.75 0.75 0.75s0.75-0.336 0.75-0.75v0c0-1.84 2.031-2.678 3.916-2.678 1.887 0 3.918 0.838 3.918 2.678 0 0.414 0.336 0.75 0.75 0.75s0.75-0.336 0.75-0.75v0c0-11.508-7.646-16.75-14.75-16.75zM20.666 15.734c-1.088-1.182-2.643-1.92-4.371-1.92-0.104 0-0.207 0.003-0.309 0.008l0.014-0.001c-0.088-0.005-0.192-0.007-0.296-0.007-1.727 0-3.282 0.738-4.367 1.915l-0.004 0.004c-1.215-1.208-2.889-1.954-4.738-1.954-1.344 0-2.595 0.394-3.645 1.074l0.026-0.016c1.235-8.279 7.323-12.087 13.023-12.087s11.789 3.809 13.023 12.088c-1.024-0.662-2.275-1.056-3.619-1.056-1.849 0-3.523 0.746-4.739 1.953l0-0zM16 17.25c-0.414 0-0.75 0.336-0.75 0.75v0 8c0 2.234-1.163 3.254-2.244 3.254s-2.245-1.020-2.245-3.254c0-0.414-0.336-0.75-0.75-0.75s-0.75 0.336-0.75 0.75v0c-0.003 0.066-0.005 0.144-0.005 0.222 0 1.235 0.42 2.373 1.126 3.277l-0.009-0.012c0.63 0.765 1.573 1.254 2.63 1.268l0.002 0c1.86 0 3.744-1.633 3.744-4.754v-8c-0-0.414-0.336-0.75-0.75-0.75v0z"></path>
</svg>