<?xml version="1.0" encoding="iso-8859-1"?>
<!-- Uploaded to: SVG Repo, www.svgrepo.com, Generator: SVG Repo Mixer Tools -->
<svg fill="#000000" version="1.1" id="Layer_1" xmlns="http://www.w3.org/2000/svg" xmlns:xlink="http://www.w3.org/1999/xlink" 
	 viewBox="0 0 512 512" xml:space="preserve">
<g>
	<g>
		<g>
			<path d="M307.863,92.605c5.832-9.493,8.97-20.439,8.97-31.773C316.833,27.289,289.544,0,256.001,0
				c-33.543,0-60.832,27.289-60.832,60.832c0,11.334,3.138,22.281,8.97,31.773c-76.445,22.456-132.424,93.232-132.424,176.846
				V462.29c0,27.41,22.3,49.71,49.71,49.71s49.71-22.3,49.71-49.71v-92.748c5.392-3.01,17.563-8.893,36.569-13.101l-3.287-14.848
				c-29.763,6.589-44.677,17.043-45.297,17.484l-2.24,1.595l-18.672-12.859l-29.445,20.277L86.921,353.05v-50.138l21.841,15.041
				l29.445-20.277l29.447,20.277l29.44-20.277l29.444,20.277l29.445-20.277l29.448,20.277l29.449-20.277l29.45,20.276l29.449-20.277
				l29.454,20.277l21.849-15.042v50.141l-21.849,15.043l-29.454-20.277l-18.664,12.852l-2.232-1.589
				c-1.308-0.931-32.767-22.811-96.882-22.811c-10.591,0-20.976,0.609-30.865,1.809l1.832,15.097
				c9.284-1.126,19.052-1.698,29.034-1.698c47.761,0,75.859,13.07,84.866,18.073v92.742c0,27.41,22.3,49.71,49.71,49.71
				s49.71-22.3,49.71-49.71V269.451C440.288,185.836,384.308,115.061,307.863,92.605z M155.928,462.29
				c-0.001,19.024-15.479,34.502-34.503,34.502c-19.025,0-34.502-15.478-34.502-34.502v-22.168l21.841,15.041l29.445-20.277
				l17.719,12.201V462.29z M86.922,371.516l21.841,15.041l29.445-20.277l17.719,12.201v50.141l-17.719-12.202l-29.445,20.277
				l-21.841-15.041V371.516z M256.001,15.208c25.157,0,45.624,20.467,45.624,45.624c0,10.161-3.355,19.915-9.519,27.879
				c-0.748-0.149-1.502-0.279-2.252-0.419c-0.562-0.104-1.121-0.213-1.685-0.313c-0.741-0.131-1.485-0.249-2.228-0.37
				c-0.828-0.136-1.655-0.274-2.487-0.398c-0.44-0.066-0.88-0.123-1.32-0.186c-1.134-0.162-2.27-0.319-3.412-0.46
				c-0.088-0.011-0.175-0.019-0.264-0.03c-7.363-0.897-14.855-1.37-22.457-1.37c-7.602,0-15.094,0.472-22.458,1.371
				c-0.088,0.01-0.175,0.019-0.264,0.03c-1.141,0.141-2.277,0.298-3.412,0.46c-0.44,0.063-0.881,0.12-1.321,0.186
				c-0.831,0.125-1.659,0.263-2.487,0.398c-0.743,0.122-1.487,0.239-2.228,0.37c-0.564,0.099-1.123,0.208-1.685,0.313
				c-0.749,0.139-1.502,0.269-2.25,0.418c-6.164-7.964-9.519-17.718-9.519-27.879C210.377,35.675,230.844,15.208,256.001,15.208z
				 M221.047,104.015c0.443-0.093,0.886-0.191,1.33-0.28c0.806-0.163,1.616-0.314,2.427-0.466c0.76-0.142,1.522-0.282,2.284-0.414
				c0.57-0.098,1.142-0.192,1.713-0.285c1.068-0.172,2.136-0.337,3.208-0.489c0.316-0.046,0.633-0.09,0.949-0.133
				c1.405-0.191,2.812-0.368,4.224-0.524c0.019-0.002,0.039-0.004,0.058-0.007c12.447-1.368,25.078-1.368,37.525,0
				c0.019,0.002,0.039,0.004,0.058,0.007c1.41,0.155,2.819,0.333,4.224,0.524c0.316,0.044,0.633,0.088,0.949,0.133
				c1.072,0.151,2.14,0.316,3.208,0.489c0.572,0.093,1.144,0.187,1.713,0.285c0.762,0.131,1.524,0.272,2.284,0.414
				c0.81,0.152,1.62,0.303,2.427,0.466c0.444,0.089,0.887,0.187,1.33,0.28c30.018,6.336,57.126,20.653,78.987,40.628l-25.617,17.635
				l-29.45-20.276l-29.449,20.276l-29.448-20.277l-29.445,20.277l-29.444-20.277l-29.44,20.277l-25.601-17.629
				C163.915,124.67,191.026,110.351,221.047,104.015z M114.767,176.61l23.442-16.144l29.447,20.277l29.44-20.277l29.444,20.277
				l29.445-20.277l29.448,20.277l29.449-20.277l29.45,20.276l29.449-20.277l23.467,16.157c8.901,13.497,15.919,28.336,20.681,44.146
				l-14.694,10.116l-29.454-20.277l-29.449,20.277l-29.45-20.277l-29.449,20.276l-29.448-20.277l-29.445,20.277l-29.444-20.277
				l-29.44,20.277l-29.447-20.277l-29.445,20.277l-14.686-10.113C98.841,204.954,105.862,190.11,114.767,176.61z M425.08,462.29
				c0,19.024-15.478,34.502-34.503,34.502s-34.502-15.478-34.502-34.502v-15.216l17.702-12.19l29.454,20.277l21.849-15.042V462.29z
				 M425.08,421.656l-21.849,15.043l-29.454-20.277l-17.702,12.19V378.47l17.702-12.19l29.454,20.275l21.849-15.042V421.656z
				 M425.08,284.447l-21.849,15.043l-29.454-20.277l-29.449,20.276l-29.45-20.276l-29.449,20.276l-29.448-20.277l-29.445,20.277
				l-29.444-20.277l-29.44,20.277l-29.447-20.277l-29.445,20.277l-21.841-15.041v-14.997c0-11.262,1.117-22.267,3.227-32.92
				l18.613,12.818l29.445-20.277l29.447,20.277l29.44-20.277l29.444,20.277l29.445-20.277l29.448,20.277l29.449-20.278l29.45,20.277
				l29.449-20.277l29.454,20.277l18.621-12.819c2.111,10.653,3.228,21.659,3.228,32.922V284.447z"/>
			<path d="M284.455,133.723l3.118-14.885c-20.635-4.322-42.492-4.324-63.136-0.002l3.115,14.886
				C246.151,129.828,265.865,129.829,284.455,133.723z"/>
			<path d="M271.209,60.832h15.208c0-16.771-13.645-30.416-30.416-30.416v15.208C264.387,45.624,271.209,52.446,271.209,60.832z"/>
			<rect x="109.042" y="464.825" width="24.775" height="15.208"/>
			<rect x="378.192" y="464.825" width="24.775" height="15.208"/>
		</g>
	</g>
</g>
</svg>